<svg width="60" height="60" viewBox="0 0 60 60" fill="none" xmlns="http://www.w3.org/2000/svg">
<path d="M30 60C46.5685 60 60 46.5685 60 30C60 13.4315 46.5685 0 30 0C13.4315 0 0 13.4315 0 30C0 46.5685 13.4315 60 30 60Z" fill="#00B22D"/>
<path d="M54.66 24.405C54.66 23.415 53.88 22.605 52.89 22.605C51.93 22.605 51.1349 23.4 51.1349 24.405C51.1349 25.395 51.915 26.205 52.89 26.205C53.88 26.22 54.66 25.41 54.66 24.405ZM52.89 25.71C52.215 25.71 51.69 25.14 51.69 24.405C51.69 23.685 52.215 23.115 52.89 23.115C53.58 23.115 54.1199 23.685 54.1199 24.405C54.1199 25.14 53.58 25.71 52.89 25.71Z" fill="white"/>
<path d="M53.37 24.555C53.46 24.525 53.655 24.39 53.655 24.105C53.655 23.76 53.43 23.55 53.055 23.55H52.26V25.245H52.785V24.675H52.92L53.16 25.245H53.73L53.415 24.66C53.385 24.57 53.37 24.555 53.37 24.555V24.555ZM52.92 24.315H52.785V23.91H52.92C53.04 23.91 53.1 23.97 53.1 24.105C53.115 24.24 53.04 24.315 52.92 24.315V24.315Z" fill="white"/>
<path d="M15.69 25.8C16.4356 25.8 17.04 25.1956 17.04 24.45C17.04 23.7044 16.4356 23.1 15.69 23.1C14.9444 23.1 14.34 23.7044 14.34 24.45C14.34 25.1956 14.9444 25.8 15.69 25.8Z" fill="white"/>
<path d="M17.1 26.685H10.92V26.28C10.92 25.485 11.715 25.47 12.12 25.47C12.585 25.47 12.795 25.515 12.795 25.515V23.325C12.795 23.325 12.375 23.265 11.805 23.265C10.515 23.265 8.13001 23.625 8.13001 26.355V26.7H7.005V28.725H8.13001V33H7.08V35.025H12.15V33H10.92V28.725H14.295V33H13.245V35.025H18.15V33H17.1V26.685ZM27.6 26.685H23.175V28.71H23.925L22.965 31.71C22.785 32.205 22.74 32.805 22.74 32.805H22.68C22.68 32.805 22.635 32.205 22.455 31.71L21.495 28.71H22.245V26.685H17.82V28.71H18.75L21.06 35.01H24.36L26.67 28.71H27.6V26.685ZM35.79 30.51C35.79 28.2 34.395 26.49 31.92 26.49C29.235 26.49 27.585 28.395 27.585 30.84C27.585 33.06 29.19 35.205 32.16 35.205C34.41 35.205 35.745 34.035 35.745 34.035L34.725 32.1C34.725 32.1 33.615 32.895 32.385 32.895C31.5 32.895 30.66 32.43 30.45 31.365H35.73C35.715 31.35 35.79 30.78 35.79 30.51ZM30.51 29.82C30.66 29.175 31.05 28.59 31.845 28.59C32.46 28.59 32.895 29.16 32.895 29.82H30.51ZM47.625 28.605H47.595C47.595 28.605 47.625 28.44 47.625 28.185V27.75C47.625 26.985 47.205 26.685 46.44 26.685H43.815V28.71H44.595C44.82 28.71 44.955 28.845 44.955 29.07V33H43.83V35.025H48.885V33H47.76V31.785C47.76 30.27 48.51 29.28 50.055 29.28C50.4 29.28 50.625 29.325 50.625 29.325V26.58C50.625 26.58 50.46 26.55 50.295 26.55C49.035 26.535 47.985 27.465 47.625 28.605ZM40.23 28.605H40.2C40.2 28.605 40.23 28.44 40.23 28.185V27.75C40.23 26.985 39.81 26.685 39.045 26.685H36.42V28.71H37.2C37.425 28.71 37.56 28.845 37.56 29.07V33H36.435V35.025H41.49V33H40.365V31.785C40.365 30.27 41.115 29.28 42.66 29.28C43.005 29.28 43.23 29.325 43.23 29.325V26.58C43.23 26.58 43.065 26.55 42.9 26.55C41.625 26.535 40.575 27.465 40.23 28.605V28.605Z" fill="white"/>
</svg>
